# xmcd CD database file
#
# Track frame offsets:
#	150
#	36515
#	99825
#	135760
#
# Disc length: 2914 seconds
#
# Revision: 0
# Processed by: cddbd v1.5.1PL0 Copyright (c) Steve Scherf et al.
# Submitted via: CDex 1.51
#
DISCID=260b6004
DTITLE=Mother of pearl - Music to harmonize the aura
DYEAR=1900
DGENRE=New Age
TTITLE0=Mother of pearl
TTITLE1=Fragrances of green
TTITLE2=Crystal vision dance
TTITLE3=Awakening in Peace
EXTD=
EXTT0=
EXTT1=
EXTT2=
EXTT3=
PLAYORDER=
